<svg width="120" height="120" viewBox="0 0 120 120" fill="none" xmlns="http://www.w3.org/2000/svg">
<circle cx="60" cy="60" r="57.4468" fill="white" fill-opacity="0.7" stroke="#007A78" stroke-width="3.82979"/>
<path d="M45.7685 53.6235C42.3829 50.3898 41.4931 49.6303 38.8672 47.7422C40.0825 46.1145 40.9072 44.5954 42.0574 41.8826C42.3829 41.1447 42.5131 40.9277 42.8387 40.6022L40.9289 38.649C40.3429 38.866 40.2127 38.866 39.1927 38.8877L31.7706 38.9962C31.1412 39.0179 30.7289 39.0179 30.5553 39.0179C29.7089 39.0179 29.1229 38.9745 28.2765 38.866L28.3851 42.729C29.2748 42.5988 29.9693 42.5554 31.8357 42.512L37.4782 42.4252C36.4582 44.9426 35.1344 46.8741 33.1161 48.8056C31.1412 50.6937 28.9059 52.1043 26.0846 53.1894C27.2999 54.4481 27.7557 55.0992 28.5153 56.6184C31.8791 54.9907 34.4616 53.0809 36.5016 50.672C38.9323 52.5601 40.8421 54.4481 42.7302 56.8354L45.7685 53.6235ZM62.8072 42.7073C62.5468 43.2064 61.9608 44.1396 61.4182 44.8124C60.637 45.8324 59.2697 47.2213 58.0327 48.2413C56.774 46.9175 56.0578 46.2447 54.2782 44.7907L51.3051 46.8741C52.8893 48.1762 53.9093 49.1745 55.6672 51.1928C57.4685 53.2328 58.5536 54.7303 59.8557 56.8571L63.111 54.3179C62.0693 52.9073 61.4616 52.126 60.5285 51.0192C63.3931 48.6103 65.1727 46.4618 67.408 42.7073C67.9506 41.7958 68.0591 41.6439 68.4063 41.3184L66.3229 38.9745C65.8672 39.1264 65.5199 39.1915 64.8255 39.1915L52.9327 39.2132C51.2182 39.2132 50.5455 39.1698 49.3519 39.0396V42.8592C50.3068 42.7724 51.0663 42.7507 52.8676 42.7507L62.8072 42.7073ZM79.2165 40.7758H75.2016C73.574 40.7758 72.8795 40.7324 71.9029 40.6022V44.2915C72.8144 44.2047 73.1616 44.183 75.1799 44.183H79.2165V53.7103C79.2165 55.4681 79.1948 55.9673 79.0646 56.9656H83.2097C83.1012 56.1626 83.0795 55.5332 83.0795 53.7537V44.183H87.268C88.9608 44.183 89.7421 44.2047 90.6102 44.2915V40.6022C89.6336 40.7324 88.9391 40.7758 87.2029 40.7758H83.0795V39.9728C83.0795 38.9962 83.1229 38.1715 83.188 37.5205H79.0863C79.1948 38.432 79.2165 38.8443 79.2165 39.9294V40.7758ZM74.1599 45.3115C74.0948 46.1145 73.9646 46.7222 73.7042 47.6554C73.0314 50.086 72.2285 51.7788 70.7961 53.7537C72.1633 54.2528 72.8578 54.6001 74.377 55.5332C75.2668 54.166 75.7008 53.3413 76.2433 52.0392C76.7642 50.8022 77.3285 48.9792 77.5455 47.8941C77.7191 47.0043 77.8276 46.4401 77.8927 46.1796L74.1599 45.3115ZM84.3816 46.1796C84.5119 46.5052 84.5336 46.592 84.7072 47.243C85.6621 50.9324 86.3565 52.7337 87.9191 55.5549C89.4599 54.5784 89.5033 54.5567 91.4999 53.5584C90.2195 51.6486 89.5033 50.1945 88.7872 48.0894C88.4182 47.026 88.1578 46.1145 87.9842 45.2681L84.3816 46.1796ZM40.9302 66.0379H39.3676C38.4344 66.0379 37.8051 65.9945 37.0672 65.9077V69.163C37.7833 69.0979 38.4561 69.0545 39.194 69.0545H42.6663C42.6012 70.3349 42.4276 71.5503 42.1238 72.7005C41.3859 71.8975 41.1906 71.7022 39.411 69.9443L37.2625 72.2881C38.5212 73.4818 39.8234 74.849 40.7999 75.9992C39.7582 77.8439 38.7599 79.0158 36.8068 80.5567C37.8702 81.5549 38.391 82.2494 38.9987 83.5298C40.9302 81.5549 41.8851 80.383 42.9485 78.6686C43.8816 79.8839 44.2506 80.4264 45.2055 81.8805L47.5059 79.0809C46.3991 77.6269 45.6178 76.672 44.5544 75.4132C45.2923 73.4384 45.7046 71.4418 45.8999 69.0545C46.551 69.0545 46.8331 69.0762 47.2889 69.1196V65.9294C46.5944 66.0162 46.117 66.0379 45.1404 66.0379H44.1421V65.0396C44.1421 64.2149 44.1638 63.7158 44.2506 63.1515H40.8216C40.9085 63.7592 40.9302 64.2366 40.9302 65.0613V66.0379ZM52.1719 70.0745V79.7971C52.1719 80.2094 51.9982 80.2962 51.0216 80.2962C50.3706 80.2962 49.2204 80.1877 48.3089 80.0575C48.7863 81.1643 49.0033 81.9456 49.2204 83.3128C50.5442 83.3562 50.8697 83.3562 51.1302 83.3562C54.6459 83.3562 55.4923 82.7486 55.4923 80.2311V70.0745C56.4255 70.0745 56.6859 70.0962 57.1851 70.1613C57.2502 70.1613 57.3153 70.183 57.4238 70.183V66.8409C56.8595 66.9494 56.4906 66.9711 55.4923 66.9711V65.9728C55.4923 64.6707 55.5357 63.9111 55.6225 63.1949H52.0416C52.1285 63.8894 52.1719 64.649 52.1719 65.9728V66.9711H49.7412C48.808 66.9711 48.2438 66.9494 47.6795 66.8626V70.1613C48.2872 70.0962 48.7212 70.0745 49.7412 70.0745H52.1719ZM46.2906 72.4184C47.571 74.263 48.2655 75.5869 49.1987 77.9524L51.9548 76.1511C50.9565 74.0026 50.4791 73.1562 49.0468 70.986L46.2906 72.4184ZM80.3221 80.4915C79.8229 77.7354 79.1285 75.6737 77.5876 72.1579L74.8097 73.4601C75.591 75.1745 75.8731 75.8907 76.3506 77.4749C75.5259 77.323 74.7229 77.0409 73.6378 76.5201C73.6161 78.4732 73.5727 79.4932 73.4208 79.7537C73.3123 79.9707 73.0953 80.0358 72.531 80.0358C71.9885 80.0358 71.8799 79.949 71.8799 79.5584V73.5035C71.8799 72.7873 71.9016 71.9626 71.9451 71.5937C72.7263 72.1796 73.0085 72.4401 73.7897 73.1996L76.0468 70.8775C74.4191 69.6188 73.0736 68.7073 71.7714 67.9911H77.0885C78.3038 67.9911 78.9765 68.0128 79.8446 68.0996V64.7575C79.1285 64.8443 78.3472 64.8877 77.0885 64.8877H71.9885V64.1498C71.9885 63.629 72.0102 63.3469 72.0753 63.043H68.4944C68.5595 63.3903 68.5812 63.6941 68.5812 64.1281V64.8877H63.2642C62.1791 64.8877 61.6582 64.866 60.8987 64.8009C60.9638 65.6039 60.9855 66.472 60.9855 68.0562C60.9855 75.4349 60.6165 78.126 59.271 80.7086C60.3561 81.6201 60.9638 82.2277 61.9187 83.4213C62.7433 81.8154 63.2208 80.4264 63.5897 78.4081C64.0672 75.8473 64.2191 73.4166 64.2191 67.9911H69.6446L68.1255 69.2715C69.6663 70.0094 70.274 70.3784 71.7063 71.3984H68.6246C68.7114 71.9409 68.7548 72.5269 68.7548 73.4818V81.5115C68.7548 82.9439 69.4493 83.2911 72.3791 83.2911C75.7212 83.2911 76.2204 82.7269 76.4808 78.6903C76.5025 78.3213 76.5025 78.3213 76.5242 78.1043C76.9365 79.6235 77.0451 80.2311 77.2187 82.0324L80.3221 80.4915ZM66.6063 82.3145C67.6046 78.6686 67.8433 77.1711 68.1038 73.0911L65.1306 72.3315C65.0655 74.1328 65.0004 75.0009 64.8268 76.2813C64.5663 78.2128 64.3493 79.0375 63.6765 80.7086L66.6063 82.3145Z" fill="#007A78"/>
</svg>
