<svg width="120" height="120" viewBox="0 0 120 120" fill="none" xmlns="http://www.w3.org/2000/svg">
<circle cx="60" cy="60" r="57.4468" fill="white" fill-opacity="0.7" stroke="#007A78" stroke-width="3.82979"/>
<path d="M47.4409 50.3898L45.3792 51.6052C46.5294 52.8205 47.1588 53.6886 47.9618 55.1643L48.9167 54.4264C49.2422 55.2511 49.4158 55.9673 49.546 57.2477C50.2405 57.2911 50.8916 57.3128 51.3473 57.3128C54.212 57.3128 55.1886 56.6835 55.1886 54.7954V50.3898C56.0567 50.3898 56.4907 50.4332 57.1852 50.5201V47.3081C56.7294 47.3732 56.3171 47.3949 55.1886 47.3949V46.2447C55.883 46.2447 56.7077 46.2881 57.3154 46.3532V43.2064C56.7945 43.2715 55.7962 43.3149 54.646 43.3149H52.4975V42.0128H54.2337C55.2537 42.0128 56.0784 42.0562 56.7077 42.1213V38.8877C55.9916 38.9745 55.2754 39.0179 54.2337 39.0179H52.4975V38.5405C52.4975 37.9111 52.5192 37.4988 52.606 37.043H49.1771C49.2422 37.4771 49.2856 37.9545 49.2856 38.5622V39.0179H48.0269C47.0069 39.0179 46.3341 38.9745 45.6179 38.8877V42.1213C46.2473 42.0562 47.0503 42.0128 48.0269 42.0128H49.2856V43.3149H47.5928C46.703 43.3149 46.0086 43.2932 45.249 43.2498V40.9928C44.815 41.0796 44.446 41.1013 43.7082 41.1013V38.8009C43.7082 38.1064 43.7516 37.5856 43.8384 37.0213H40.4094C40.4962 37.6073 40.5396 38.1498 40.5396 38.8009V41.1013H39.9537C39.9537 40.8843 39.9537 40.7758 39.9537 40.6022C39.9754 39.5822 39.9754 39.452 40.0188 39.1481L37.4796 38.866C37.523 39.2349 37.5447 39.452 37.5447 39.8643C37.5447 42.0996 37.2409 44.2698 36.6984 46.0277C37.6099 46.3749 38.0439 46.6137 39.0639 47.2647C39.4328 45.9626 39.5413 45.4201 39.6933 44.1396H40.5396V48.2413C38.6082 48.7405 37.9354 48.8707 36.9805 48.9792L37.5665 52.3864C38.1524 52.1477 38.1524 52.1477 39.3243 51.8222C39.715 51.692 39.9537 51.6269 40.5396 51.4315V54.752C40.5396 55.772 40.4962 56.8137 40.4094 57.4864H43.8384C43.7516 56.6401 43.7082 55.8154 43.7082 54.752V50.3247C44.2507 50.1294 44.3158 50.1077 45.032 49.8039V50.5201C45.7916 50.4115 46.2473 50.3898 47.1588 50.3898H47.4409ZM51.9984 50.3898V53.732C51.9984 54.2094 51.8465 54.3179 51.152 54.3179C50.8047 54.3179 50.1971 54.2745 49.2639 54.166L50.6311 53.1243C49.9584 52.0392 49.3073 51.2362 48.4175 50.3898H51.9984ZM43.7082 44.1396C44.2073 44.1396 44.2073 44.1396 44.9018 44.183V46.3532C45.5528 46.2664 46.2473 46.2447 47.5928 46.2447H51.9984V47.3949H47.6362C46.486 47.3949 45.835 47.3732 45.249 47.3081V46.7222C44.229 47.0911 44.229 47.0911 43.7082 47.2864V44.1396ZM72.466 42.729V46.2013H70.1439C69.406 46.2013 68.7767 46.1579 68.1907 46.0928V49.4349C68.972 49.3481 69.7967 49.3047 70.7299 49.3047H72.466V54.5132C72.466 55.6418 72.4226 56.5532 72.3358 57.4647H75.9601C75.8733 56.6184 75.8299 55.7286 75.8299 54.5132V49.3047H77.5877C78.5426 49.3047 79.3673 49.3481 80.1269 49.4349V46.0711C79.4107 46.1579 78.6294 46.2013 77.5877 46.2013H75.8299V42.729H77.2622C78.3473 42.729 79.0635 42.7724 79.7362 42.8375V39.5388C79.0201 39.6256 78.2605 39.669 77.2188 39.669H73.052C73.3341 38.9528 73.3775 38.8443 73.5077 38.432C73.7464 37.8026 73.7464 37.7592 73.8984 37.412L70.4911 36.7392C70.2524 38.4971 69.2758 40.7541 68.1256 42.2949V40.4937C67.6264 40.5371 67.2141 40.5588 66.3677 40.5588H61.4413C60.6167 40.5588 60.2043 40.5371 59.6835 40.4503V43.4018C60.2477 43.3367 60.6601 43.3149 61.4413 43.3149H66.4111C66.8235 43.3149 67.0188 43.3149 67.4311 43.3367C67.7133 43.5754 67.7567 43.6188 68.0171 43.9226C68.8635 44.9643 69.1022 45.2898 69.4711 45.9192C70.3609 44.8775 71.012 43.966 71.663 42.729H72.466ZM60.3562 39.9077C60.9856 39.8643 61.3979 39.8426 62.3311 39.8426H65.695C66.6499 39.8426 67.1056 39.8643 67.6699 39.9077V37.3686C67.0622 37.4337 66.715 37.4554 65.695 37.4554H62.3311C61.3111 37.4554 60.9639 37.4337 60.3562 37.3686V39.9077ZM60.4213 46.4618C60.812 46.4184 61.029 46.4184 61.7235 46.4184H66.4328C67.0839 46.4184 67.2792 46.4184 67.6699 46.4618V44.0094C67.3443 44.0311 67.0839 44.0528 66.4328 44.0528H61.7235C61.0507 44.0528 60.8554 44.0528 60.4213 44.0094V46.4618ZM60.4213 49.5435C60.8337 49.5001 61.0724 49.5001 61.6801 49.5001H66.3677C67.0622 49.5001 67.3009 49.5001 67.6699 49.5435V47.0911C67.3443 47.1128 67.0839 47.1345 66.4111 47.1345H61.7235C61.0507 47.1345 60.8554 47.1345 60.4213 47.0911V49.5435ZM63.3294 57.4213V56.5315H64.892V57.1175H67.8869C67.8218 56.4664 67.8001 55.9673 67.8001 55.3596V51.6052C67.8001 51.0192 67.8218 50.6069 67.8652 50.1728C67.4962 50.2379 67.2792 50.2379 66.4979 50.2379H61.8537C61.1592 50.2379 60.7903 50.2162 60.2477 50.1728C60.3128 50.7371 60.3345 51.1277 60.3345 51.8005V55.3162C60.3345 55.989 60.2911 56.7703 60.226 57.4213H63.3294ZM63.2643 52.5818H64.892V53.9924H63.2643V52.5818ZM34.006 69.5537H30.6856V66.5588C30.6856 65.7341 30.7073 65.1698 30.7724 64.7141H27.235C27.2784 65.1264 27.3435 66.4286 27.3435 66.8192V71.0945C27.3435 71.7456 27.3218 72.3098 27.2567 72.7656C27.7558 72.7005 28.2767 72.6788 29.0362 72.6788H34.006V79.1243H29.9694V76.0209C29.9694 75.1094 29.9911 74.632 30.0562 74.1328H26.5188C26.5839 74.6537 26.6273 75.5001 26.6273 76.3898V80.7954C26.6273 81.8371 26.5839 82.5749 26.4971 83.2911H29.9694V82.3579H41.7754V83.2911H45.2477C45.1609 82.6618 45.1175 82.0324 45.1175 80.7954V76.3464C45.1175 75.4349 45.1609 74.7188 45.226 74.1111H41.6886C41.7537 74.6754 41.7754 75.2396 41.7754 75.9775V79.1243H37.4567V72.6788H42.7954C43.5116 72.6788 44.0107 72.7005 44.5099 72.7656C44.4447 72.3532 44.423 71.8324 44.423 71.0945V66.7975C44.423 65.8643 44.4447 65.4086 44.5316 64.7141H40.9941C41.0592 65.2566 41.0809 65.7775 41.0809 66.5371V69.5537H37.4567V65.4954C37.4567 64.4103 37.4784 63.846 37.5869 63.1515H33.8758C33.9626 63.7375 34.006 64.432 34.006 65.4954V69.5537ZM52.5856 74.263C52.5856 74.9575 52.5639 75.4567 52.5205 75.9775C53.0196 75.9341 53.5188 75.9124 54.0613 75.9124H54.4954V80.1009C54.4954 80.3396 54.452 80.383 54.1482 80.383C54.0179 80.383 54.0179 80.383 53.6056 80.3179C53.8443 78.9724 53.9094 78.4515 54.083 76.6937L52.3903 76.3681C52.195 78.7554 51.9128 80.0141 51.175 81.8805L52.9545 82.792C53.2584 81.8371 53.3669 81.4681 53.5188 80.7303C53.7141 81.4464 53.8009 82.3145 53.8226 83.3128C54.1482 83.3345 54.3218 83.3345 54.4954 83.3345C56.5137 83.3345 56.926 82.9222 56.926 80.8822V75.9124H57.5337C58.0545 75.9124 58.4669 75.9341 58.8792 75.9775C58.8358 75.5435 58.8141 75.0443 58.8141 74.2196V69.1196C58.8141 68.4469 58.8358 68.0128 58.8792 67.5571C58.4235 67.6005 57.9894 67.6222 57.3601 67.6222H56.926C57.0779 67.3184 57.1647 67.1447 57.3384 66.689C58.1413 66.7107 58.2499 66.7107 58.8358 66.7541V63.6073C58.1196 63.6941 57.4469 63.7158 56.2533 63.7158H51.5656C50.4371 63.7158 49.8511 63.6941 49.0916 63.6073C49.1784 64.4537 49.2001 65.3435 49.2001 66.7107C49.2001 70.7473 49.0916 73.7856 48.8528 76.3464C48.6792 78.2345 48.4839 79.1026 47.9196 80.4915C48.8311 81.4464 49.2001 81.9456 50.155 83.4213C50.9579 81.7286 51.3052 80.4698 51.609 77.9741C51.9128 75.4132 51.9996 72.6137 52.0213 66.689H54.3869C54.3001 66.9494 54.1916 67.1881 53.9962 67.6222C53.2801 67.6222 53.0196 67.6222 52.5205 67.5571C52.5639 68.0128 52.5856 68.4686 52.5856 69.0328V74.263ZM55.0596 69.8358H56.3401V70.8124H55.0596V69.8358ZM55.0596 72.7222H56.3401V73.6988H55.0596V72.7222ZM66.2145 79.1677C66.7788 79.1677 67.3213 79.1894 68.0809 79.2328C68.0158 78.5601 67.9941 77.6703 67.9941 76.8239V69.5971C67.9941 68.8158 68.0158 68.2081 68.0809 67.5571C67.5167 67.6005 67.1477 67.6005 65.7805 67.6005H64.869C65.0643 67.1881 65.1294 67.0362 65.303 66.6673H66.0843C67.343 66.6673 67.8856 66.689 68.6452 66.7541V63.6073C68.0158 63.6941 67.3865 63.7158 66.0843 63.7158H61.7873C60.5069 63.7158 59.9426 63.6941 59.2916 63.6073V66.7541C59.9209 66.689 60.5069 66.6673 61.2882 66.6673H62.026C61.8307 67.0796 61.8307 67.1013 61.592 67.6005H61.2013C60.0728 67.6005 59.986 67.6005 59.4001 67.5571C59.4218 67.7741 59.4435 68.4686 59.4652 69.5971V77.2145C59.4652 77.8439 59.4435 78.5818 59.4001 79.2111C59.8124 79.1894 60.2682 79.1677 60.9843 79.1677C59.9643 80.0792 59.0094 80.6218 57.2516 81.2728C58.0545 82.0975 58.6188 82.8137 59.1613 83.7686C60.9409 82.9222 62.0911 82.0975 63.415 80.752C64.6737 82.0324 65.6069 82.7703 67.0392 83.6384C67.6252 82.6184 68.1026 81.9673 68.949 80.9039C67.5167 80.2745 66.8005 79.8622 65.9107 79.1677H66.2145ZM62.026 79.1677H64.5869L63.3282 80.383L62.026 79.1677ZM62.4384 70.0745H64.9124V70.8558H62.4384V70.0745ZM62.4384 72.8741H64.9124V73.6988H62.4384V72.8741ZM62.4384 75.7171H64.9124V76.5852H62.4384V75.7171ZM57.2299 76.6286C57.4252 77.8873 57.4903 78.7337 57.512 80.2528L59.2047 79.9056C59.1179 78.7554 58.966 77.5184 58.749 76.3898L57.2299 76.6286ZM70.7745 70.9643C72.5107 72.006 73.2269 72.5052 74.7026 73.7639L76.0916 71.7022C76.4388 72.5269 76.569 72.9392 76.7426 73.7422C77.2852 73.6554 77.4154 73.6337 77.8277 73.5686C77.7626 77.7571 77.1984 79.3196 75.0716 81.2077C76.2869 82.0324 76.9813 82.6618 77.7192 83.6167C78.9779 82.3579 79.6724 81.2728 80.215 79.7754H85.8358V80.7303C85.8358 81.8588 85.7924 82.6835 85.7056 83.4213H89.1779C89.0911 82.6835 89.0477 81.9456 89.0477 80.7303V73.5469C89.5035 73.6554 89.7639 73.6988 90.4584 73.829C90.7839 72.5269 91.0443 71.8758 91.6737 70.8124C89.8507 70.6822 88.4618 70.4435 86.6605 69.9443C87.6588 69.163 88.3099 68.4686 89.0694 67.4486C90.2413 67.4486 90.5669 67.4703 91.2179 67.5571V64.432C90.5669 64.5188 89.7856 64.5622 88.592 64.5622H85.163V64.2801C85.163 63.7592 85.1847 63.3903 85.2716 62.9779H81.7341C81.7992 63.3686 81.8426 63.7809 81.8426 64.3235V64.5622H79.3252C78.1316 64.5622 77.4588 64.5188 76.786 64.432V65.3001C75.6792 64.3886 74.8111 63.7809 73.4656 62.9562L71.4039 65.4086C73.0967 66.472 73.8779 67.0796 75.2235 68.3167L76.786 66.2984V67.5571C77.2635 67.492 77.5673 67.4703 78.1967 67.4486C78.9996 68.512 79.6073 69.1196 80.7141 69.966C79.1516 70.4435 77.8494 70.6605 76.1784 70.769C75.0933 69.9009 74.1167 69.2498 72.6843 68.4469L70.7745 70.9643ZM81.083 73.243V72.7656C82.1247 72.4401 82.7107 72.223 83.6656 71.789C84.5337 72.2013 84.9677 72.3749 85.8358 72.6788V73.243H81.083ZM85.8358 75.9775V77.0192H80.8226C80.8877 76.6069 80.8877 76.4549 80.9528 75.9775H85.8358ZM85.1196 67.4486C84.6856 67.9477 84.2082 68.3167 83.5137 68.7507C82.7324 68.2949 82.2984 67.9694 81.7992 67.4486H85.1196ZM73.6826 74.2413C72.8145 77.4967 71.8379 79.8405 70.8396 80.9907L73.6609 83.443C73.8779 83.0307 73.8779 83.0307 73.9647 82.8354C74.9413 80.9256 75.5707 79.146 76.3737 76.1511L73.6826 74.2413Z" fill="#007A78"/>
</svg>
