<svg width="149" height="32" viewBox="0 0 149 32" fill="none" xmlns="http://www.w3.org/2000/svg">
<path fill-rule="evenodd" clip-rule="evenodd" d="M18.1577 1.7644L8.01244 11.8729V1.7644H0.081543V31.7301H8.01244V23.0201L9.9048 21.1024L20.654 31.7301H31.846L15.5008 15.4688L29.2693 1.7644H18.1577Z" fill="#484848"/>
<path fill-rule="evenodd" clip-rule="evenodd" d="M35.0515 31.73H42.9824V1.76428H35.0515V31.73Z" fill="#484848"/>
<path fill-rule="evenodd" clip-rule="evenodd" d="M100.385 1.7644L86.2947 31.7301H94.2258L96.0376 27.8145H108.397L110.249 31.7301H118.18L103.968 1.7644H100.385ZM102.237 14.5897L105.297 21.1821H99.1374L102.237 14.5897Z" fill="#484848"/>
<path fill-rule="evenodd" clip-rule="evenodd" d="M72.7006 31.7996H80.6448V9.65771L72.7006 17.5418V31.7996ZM49.0361 31.7996H56.9803V22.1795L49.0361 15.2229V31.7996Z" fill="#484848"/>
<path fill-rule="evenodd" clip-rule="evenodd" d="M62.2759 23.5016L49.7385 12.7751L54.9254 6.80364L61.9958 12.8526L75.2778 0.231812L80.7719 5.92665L62.2759 23.5016Z" fill="#45A8A1"/>
<path fill-rule="evenodd" clip-rule="evenodd" d="M130.138 16.987H135.049C137.465 16.987 139.397 15.109 139.397 12.7118C139.397 10.3148 137.465 8.39662 135.049 8.39662H130.138V16.987ZM139.72 31.7301L135.049 23.7793H130.138V31.7301H122.207V1.76465H134.929C141.048 1.76465 146.04 6.71885 146.04 12.7919C146.04 15.9882 144.631 18.8649 142.457 20.8626L148.858 31.7301H139.72Z" fill="#484848"/>
</svg>
