<svg width="169" height="32" viewBox="0 0 169 32" fill="none" xmlns="http://www.w3.org/2000/svg">
<path fill-rule="evenodd" clip-rule="evenodd" d="M21.1476 1.73291L9.74014 11.6611V1.73291H0.82251V31.1641H9.74014V22.6095L11.8679 20.726L23.9545 31.1641H36.539L18.1602 15.1928L33.6417 1.73291H21.1476Z" fill="#303030"/>
<path fill-rule="evenodd" clip-rule="evenodd" d="M40.1433 31.1639H49.0609V1.73267H40.1433V31.1639Z" fill="#303030"/>
<path fill-rule="evenodd" clip-rule="evenodd" d="M113.606 1.73291L97.762 31.1641H106.68L108.717 27.3184H122.614L124.697 31.1641H133.614L117.634 1.73291H113.606ZM115.688 14.3294L119.128 20.8043H112.203L115.688 14.3294Z" fill="#303030"/>
<path fill-rule="evenodd" clip-rule="evenodd" d="M82.4764 31.2325H91.409V9.48547L82.4764 17.2289V31.2325ZM55.8677 31.2324H64.8003V21.7838L55.8677 14.9514V31.2324Z" fill="#303030"/>
<path fill-rule="evenodd" clip-rule="evenodd" d="M70.7547 23.0823L56.6575 12.5471L62.4897 6.68215L70.4397 12.6232L85.3742 0.227539L91.5519 5.82081L70.7547 23.0823Z" fill="#007A78"/>
<path fill-rule="evenodd" clip-rule="evenodd" d="M147.06 16.6841H152.582C155.298 16.6841 157.471 14.8396 157.471 12.4851C157.471 10.1309 155.298 8.24697 152.582 8.24697H147.06V16.6841ZM157.834 31.1641L152.582 23.3551H147.06V31.1641H138.142V1.73315H152.447C159.327 1.73315 164.941 6.599 164.941 12.5637C164.941 15.703 163.356 18.5284 160.912 20.4905L168.109 31.1641H157.834Z" fill="#303030"/>
</svg>
