<svg width="400" height="86" viewBox="0 0 400 86" fill="none" xmlns="http://www.w3.org/2000/svg">
<path fill-rule="evenodd" clip-rule="evenodd" d="M48.5796 4.74182L21.3143 31.9085V4.74182H0V85.2746H21.3143V61.8664L26.4 56.7126L55.2885 85.2746H85.367L41.4392 41.5723L78.4421 4.74182H48.5796Z" fill="#484848"/>
<path fill-rule="evenodd" clip-rule="evenodd" d="M93.9817 85.274H115.296V4.74121H93.9817V85.274Z" fill="#484848"/>
<path fill-rule="evenodd" clip-rule="evenodd" d="M269.567 4.74182L231.698 85.2746H253.013L257.882 74.7514H291.097L296.075 85.2746H317.389L279.195 4.74182H269.567ZM274.544 39.2097L282.767 56.927H266.213L274.544 39.2097Z" fill="#484848"/>
<path fill-rule="evenodd" clip-rule="evenodd" d="M195.163 85.4613H216.514V25.955L195.163 47.1434V85.4613ZM131.565 85.4613H152.915V59.6071L131.565 40.9115V85.4613Z" fill="#484848"/>
<path fill-rule="evenodd" clip-rule="evenodd" d="M167.147 63.1604L133.453 34.3329L147.393 18.2846L166.394 34.5411L202.09 0.622803L216.855 15.9277L167.147 63.1604Z" fill="#45A8A1"/>
<path fill-rule="evenodd" clip-rule="evenodd" d="M349.526 45.6528H362.726C369.218 45.6528 374.411 40.6056 374.411 34.163C374.411 27.7211 369.218 22.5661 362.726 22.5661H349.526V45.6528ZM375.277 85.2745L362.726 63.9066H349.526V85.2745H328.212V4.74231H362.401C378.847 4.74231 392.264 18.0567 392.264 34.378C392.264 42.9681 388.477 50.6993 382.634 56.0681L399.837 85.2745H375.277Z" fill="#484848"/>
</svg>
