<svg width="36" height="41" viewBox="0 0 36 41" fill="none" xmlns="http://www.w3.org/2000/svg">
<path d="M28.424 40.548L22.568 34.212C21.128 34.628 19.544 34.836 17.816 34.836C14.712 34.836 11.848 34.116 9.224 32.676C6.632 31.204 4.568 29.172 3.032 26.58C1.528 23.956 0.776 21.012 0.776 17.748C0.776 14.484 1.528 11.556 3.032 8.964C4.568 6.372 6.632 4.356 9.224 2.916C11.848 1.444 14.712 0.707997 17.816 0.707997C20.952 0.707997 23.816 1.444 26.408 2.916C29.032 4.356 31.096 6.372 32.6 8.964C34.104 11.556 34.856 14.484 34.856 17.748C34.856 20.82 34.184 23.604 32.84 26.1C31.528 28.564 29.704 30.548 27.368 32.052L35.384 40.548H28.424ZM6.392 17.748C6.392 20.212 6.872 22.388 7.832 24.276C8.824 26.132 10.184 27.572 11.912 28.596C13.64 29.588 15.608 30.084 17.816 30.084C20.024 30.084 21.992 29.588 23.72 28.596C25.448 27.572 26.792 26.132 27.752 24.276C28.744 22.388 29.24 20.212 29.24 17.748C29.24 15.284 28.744 13.124 27.752 11.268C26.792 9.412 25.448 7.988 23.72 6.996C21.992 6.004 20.024 5.508 17.816 5.508C15.608 5.508 13.64 6.004 11.912 6.996C10.184 7.988 8.824 9.412 7.832 11.268C6.872 13.124 6.392 15.284 6.392 17.748Z" fill="#007A78"/>
</svg>
