<svg width="247" height="53" viewBox="0 0 247 53" fill="none" xmlns="http://www.w3.org/2000/svg">
<path fill-rule="evenodd" clip-rule="evenodd" d="M29.9921 2.83643L13.2239 19.5439V2.83643H0.115601V52.3641H13.2239V37.968L16.3516 34.7985L34.1181 52.3641H52.6163L25.6007 25.4871L48.3575 2.83643H29.9921Z" fill="#484848"/>
<path fill-rule="evenodd" clip-rule="evenodd" d="M57.9143 52.3638H71.0226V2.83618H57.9143V52.3638Z" fill="#484848"/>
<path fill-rule="evenodd" clip-rule="evenodd" d="M165.899 2.83643L142.61 52.3641H155.718L158.713 45.8923H179.14L182.202 52.3641H195.31L171.821 2.83643H165.899ZM168.96 24.0342L174.017 34.9303H163.836L168.96 24.0342Z" fill="#484848"/>
<path fill-rule="evenodd" clip-rule="evenodd" d="M120.141 52.4789H133.271V15.8824L120.141 28.9133V52.4789ZM81.0282 52.4789H94.1585V36.5785L81.0282 25.0807V52.4789Z" fill="#484848"/>
<path fill-rule="evenodd" clip-rule="evenodd" d="M102.911 38.7638L82.189 21.035L90.7619 11.1652L102.448 21.163L124.401 0.303223L133.481 9.71573L102.911 38.7638Z" fill="#45A8A1"/>
<path fill-rule="evenodd" clip-rule="evenodd" d="M215.074 27.9967H223.192C227.184 27.9967 230.379 24.8927 230.379 20.9305C230.379 16.9687 227.184 13.7984 223.192 13.7984H215.074V27.9967ZM230.911 52.3641L223.192 39.2228H215.074V52.3641H201.966V2.83679H222.992C233.107 2.83679 241.358 11.0252 241.358 21.0628C241.358 26.3456 239.029 31.1004 235.436 34.4022L246.016 52.3641H230.911Z" fill="#484848"/>
</svg>
