<svg width="89" height="88" viewBox="0 0 89 88" fill="none" xmlns="http://www.w3.org/2000/svg">
<circle cx="44.5" cy="44" r="42.5" fill="white" stroke="#45A8A1" stroke-width="3"/>
<path d="M58.3333 61.865V58.2785C58.3333 56.3761 57.5775 54.5516 56.2324 53.2064C54.8872 51.8612 53.0627 51.1055 51.1603 51.1055H40.4008C38.4984 51.1055 36.6739 51.8612 35.3287 53.2064C33.9835 54.5516 33.2278 56.3761 33.2278 58.2785V61.865" stroke="#45A8A1" stroke-width="2.1519" stroke-linecap="round" stroke-linejoin="round"/>
<path d="M45.7807 46.8018C49.7422 46.8018 52.9537 43.5903 52.9537 39.6288C52.9537 35.6673 49.7422 32.4558 45.7807 32.4558C41.8191 32.4558 38.6077 35.6673 38.6077 39.6288C38.6077 43.5903 41.8191 46.8018 45.7807 46.8018Z" stroke="#45A8A1" stroke-width="2.1519" stroke-linecap="round" stroke-linejoin="round"/>
<path d="M40.7595 26V28.1519" stroke="#F3CC71" stroke-width="2.1519" stroke-linecap="round" stroke-linejoin="round"/>
<path d="M32.1519 36.7595H30" stroke="#F3CC71" stroke-width="2.1519" stroke-linecap="round" stroke-linejoin="round"/>
<path d="M34.6694 30.6694L33.1523 29.1523" stroke="#F3CC71" stroke-width="2.1519" stroke-linecap="round" stroke-linejoin="round"/>
</svg>
