<svg width="89" height="88" viewBox="0 0 89 88" fill="none" xmlns="http://www.w3.org/2000/svg">
<circle cx="44.5" cy="44" r="42.5" fill="white" stroke="#45A8A1" stroke-width="3"/>
<path d="M51.6667 30.6666H55.0001C55.8841 30.6666 56.732 31.0178 57.3571 31.6429C57.9822 32.2681 58.3334 33.1159 58.3334 34V57.3333C58.3334 58.2173 57.9822 59.0652 57.3571 59.6903C56.732 60.3154 55.8841 60.6666 55.0001 60.6666H35.0001C34.116 60.6666 33.2682 60.3154 32.6431 59.6903C32.0179 59.0652 31.6667 58.2173 31.6667 57.3333V34C31.6667 33.1159 32.0179 32.2681 32.6431 31.6429C33.2682 31.0178 34.116 30.6666 35.0001 30.6666H38.3334" stroke="#45A8A1" stroke-width="2" stroke-linecap="round" stroke-linejoin="round"/>
<path d="M49.9999 27.3334H39.9999C39.0794 27.3334 38.3333 28.0796 38.3333 29V32.3334C38.3333 33.2538 39.0794 34 39.9999 34H49.9999C50.9204 34 51.6666 33.2538 51.6666 32.3334V29C51.6666 28.0796 50.9204 27.3334 49.9999 27.3334Z" fill="#F3CC71" stroke="#45A8A1" stroke-width="2" stroke-linecap="round" stroke-linejoin="round"/>
<path d="M44 42.3333H52" stroke="#45A8A1" stroke-width="2" stroke-linecap="round" stroke-linejoin="round"/>
<path d="M44 50.6667H52" stroke="#45A8A1" stroke-width="2" stroke-linecap="round" stroke-linejoin="round"/>
<path d="M38.3333 42.3334H38.3499" stroke="#45A8A1" stroke-width="2" stroke-linecap="round" stroke-linejoin="round"/>
<path d="M38.3333 50.6666H38.3499" stroke="#45A8A1" stroke-width="2" stroke-linecap="round" stroke-linejoin="round"/>
</svg>
