<svg width="88" height="88" viewBox="0 0 88 88" fill="none" xmlns="http://www.w3.org/2000/svg">
<circle cx="44" cy="44" r="42.5" fill="white" stroke="#45A8A1" stroke-width="3"/>
<path d="M44.5 59C52.7843 59 59.5 52.2843 59.5 44C59.5 35.7157 52.7843 29 44.5 29C36.2157 29 29.5 35.7157 29.5 44C29.5 52.2843 36.2157 59 44.5 59Z" stroke="#45A8A1" stroke-width="2" stroke-linecap="round" stroke-linejoin="round"/>
<path d="M39.5 49H49.5" stroke="#45A8A1" stroke-width="2" stroke-linecap="round" stroke-linejoin="round"/>
<path d="M39.5 40H39.5167" stroke="#45A8A1" stroke-width="2" stroke-linecap="round" stroke-linejoin="round"/>
<path d="M49.5 40H49.5167" stroke="#45A8A1" stroke-width="2" stroke-linecap="round" stroke-linejoin="round"/>
<path d="M57.5 27.8146C57.7128 27.2096 58.1329 26.6994 58.6859 26.3744C59.2388 26.0495 59.8889 25.9307 60.5211 26.0391C61.1532 26.1475 61.7266 26.4762 62.1396 26.9668C62.5527 27.4575 62.7788 28.0785 62.7778 28.7199C62.7778 30.5305 60.0619 31.4357 60.0619 31.4357V32.7032" stroke="#F3CC71" stroke-width="2" stroke-linecap="round" stroke-linejoin="round"/>
<path d="M60.1345 35.0569H60.1448" stroke="#F3CC71" stroke-width="2" stroke-linecap="round" stroke-linejoin="round"/>
</svg>
